# xmcd
#
# Track frame offsets: 
#        150
#        5822
#        20829
#        48449
#        79065
#        100824
#        114090
#        167104
#        196405
#        213012
#        229010
#
# Disc length: 3388 seconds
#
# Revision: 0
# Processed by: cddbd v1.5.2PL0 Copyright (c) Steve Scherf et al.
# Submitted via: ExactAudioCopyFreeDBPlugin 1.0
#
DISCID=860d3a0b
DTITLE=Ensamma Hjartan - Proggladan-Box A: Tyngre Rock and Blues [CD 2: 
DTITLE=Tonkraft 1977)
DYEAR=2013
DGENRE=Swdish Progg
TTITLE0=Introsnack
TTITLE1=Dårhus Rock
TTITLE2=Porten Slår Igen
TTITLE3=Bullshit Blues
TTITLE4=Giv Akt
TTITLE5=Jag
TTITLE6=Hamburgaren
TTITLE7=Ego Boy
TTITLE8=Art
TTITLE9=Gamla Grisar Och Fyllhundar
TTITLE10=Snutlåten
EXTD=
EXTT0=
EXTT1=
EXTT2=
EXTT3=
EXTT4=
EXTT5=
EXTT6=
EXTT7=
EXTT8=
EXTT9=
EXTT10=
PLAYORDER=
